HIERARCHY
ROOT Hips
{
  OFFSET 0 0 0
  CHANNELS 6 Xposition Yposition Zposition Zrotation Xrotation Yrotation
  JOINT Spine
  {
    OFFSET 0 10 0
    CHANNELS 3 Zrotation Xrotation Yrotation
    JOINT Neck
    {
      OFFSET 0 30 0
      CHANNELS 3 Zrotation Xrotation Yrotation
      JOINT Head
      {
        OFFSET 0 8 0
        CHANNELS 3 Zrotation Xrotation Yrotation
        End Site
        {
          OFFSET 0 10 0
        }
      }
    }
    JOINT LeftArm
    {
      OFFSET 15 30 0
      CHANNELS 3 Zrotation Xrotation Yrotation
      JOINT LeftForeArm
      {
        OFFSET 25 0 0
        CHANNELS 3 Zrotation Xrotation Yrotation
        JOINT LeftHand
        {
          OFFSET 25 0 0
          CHANNELS 3 Zrotation Xrotation Yrotation
          End Site
          {
            OFFSET 10 0 0
          }
        }
      }
    }
    JOINT RightArm
    {
      OFFSET -15 30 0
      CHANNELS 3 Zrotation Xrotation Yrotation
      JOINT RightForeArm
      {
        OFFSET -25 0 0
        CHANNELS 3 Zrotation Xrotation Yrotation
        JOINT RightHand
        {
          OFFSET -25 0 0
          CHANNELS 3 Zrotation Xrotation Yrotation
          End Site
          {
            OFFSET -10 0 0
          }
        }
      }
    }
  }
  JOINT LeftUpLeg
  {
    OFFSET 10 -10 0
    CHANNELS 3 Zrotation Xrotation Yrotation
    JOINT LeftLeg
    {
      OFFSET 0 -35 0
      CHANNELS 3 Zrotation Xrotation Yrotation
      JOINT LeftToe
      {
        OFFSET 0 -40 0
        CHANNELS 3 Zrotation Xrotation Yrotation
        JOINT LeftToeEnd
        {
          OFFSET 0 0 0
          CHANNELS 3 Zrotation Xrotation Yrotation
          End Site
          {
            OFFSET 0 0 15
          }
        }
      }
    }
  }
  JOINT RightUpLeg
  {
    OFFSET -10 -10 0
    CHANNELS 3 Zrotation Xrotation Yrotation
    JOINT RightLeg
    {
      OFFSET 0 -35 0
      CHANNELS 3 Zrotation Xrotation Yrotation
      JOINT RightToe
      {
        OFFSET 0 -40 0
        CHANNELS 3 Zrotation Xrotation Yrotation
        JOINT RightToeEnd
        {
          OFFSET 0 0 0
          CHANNELS 3 Zrotation Xrotation Yrotation
          End Site
          {
            OFFSET 0 0 15
          }
        }
      }
    }
  }
}
MOTION
Frames:	16
Frame Time:	0.0333333
51.1711 86.0387 -82.4672 -2.35803 8.84593 12.6335 1.51317 -10.6421 -5.87784 -8.16084 -10.5848 -8.07478 14.7873 14.0531 -10.441 -95.7923 42.4485 15.4872 6.85648 -1.58722 -15.4177 0.505023 6.92908 0.891457 94.0614 34.0744 -22.6339 -12.8062 -4.25965 21.9724 3.47242 -17.9533 2.44684 9.71872 6.76172 8.7909 3.42157 36.4325 0.754391 -7.38531 1.34138 6.32793 3.18055e-015 6.36111e-015 -3.18055e-015 -0.575951 -35.1568 -1.90054 0.0571761 32.121 -3.14105 0.220568 -6.08146 -0.19336 3.88251e-018 -6.21202e-018 -0 
50.7345 86.9226 -79.3572 -2.17821 8.94545 11.9858 1.4399 -9.91987 -4.5097 -8.13359 -10.8487 -8.09365 14.9623 13.3809 -11.1264 -98.8081 47.8774 20.1847 8.748 -2.17128 -18.4372 0.472189 1.16674 0.784885 92.5643 35.971 -21.4447 -13.7429 -4.76267 23.3618 3.44387 -18.3099 2.7016 8.26793 1.55303 9.06416 4.94996 41.8653 -2.47666 -5.72016 1.44651 11.3361 -9.54166e-015 -3.18055e-015 -0 0.367931 -31.4025 -1.28755 0.00681079 29.2571 -2.85219 -0.225105 -7.08144 0.364378 0 3.03321e-021 -0 
50.4337 87.7811 -76.2618 -2.47229 8.72267 10.7839 2.24959 -9.30481 -2.52728 -8.17526 -10.4187 -7.73748 15.1845 12.4828 -11.6901 -101.89 50.2307 24.3088 10.4822 -2.87937 -21.3236 0.659932 -4.57365 0.625605 91.3815 38.9851 -21.2468 -14.8704 -5.30154 25.0561 3.40408 -19.6805 2.66035 7.98882 -4.50079 9.41414 5.66316 48.9209 -2.7623 -5.13163 -1.6443 12.2793 3.18055e-015 1.27222e-014 -3.18055e-015 1.62275 -27.135 -1.26441 0.0768771 25.8898 -2.67974 -0.409076 -8.42348 1.81879 -9.93923e-017 -2.98177e-016 -1.59028e-015 
50.0835 88.3056 -73.2832 -2.70907 8.9743 9.46762 2.70589 -9.12957 -0.661433 -8.2631 -10.3324 -7.28024 15.645 12.0928 -11.9488 -103.04 50.9049 26.2394 11.7547 -3.42717 -23.385 0.491467 -8.46396 0.716733 89.3755 41.4089 -19.6 -15.8233 -5.81459 26.4271 3.41794 -20.5581 2.53091 7.80672 -11.1076 9.82887 5.82613 53.9854 -2.77076 -3.31198 -6.4906 9.4115 3.18055e-015 0 -4.77083e-015 3.04435 -23.8566 -0.108561 -0.0363476 23.3345 -2.56575 -0.28165 -9.54337 2.24754 -1.36664e-016 -9.93923e-017 -1.59028e-015 
49.8289 88.4309 -70.3988 -2.23124 8.85925 8.06601 2.67131 -8.7306 1.5797 -8.85056 -9.00571 -6.94629 16.4769 10.9318 -12.3611 -103.702 49.7942 27.3889 13.0561 -4.01599 -25.3681 0.0158363 -12.9482 1.01629 87.257 42.2191 -18.213 -16.779 -6.43252 27.8871 3.39618 -20.6106 2.49625 6.90305 -16.8572 10.2243 5.63784 57.0506 -2.46713 -2.18362 -9.78327 7.54111 -1.59028e-015 0 -3.18055e-015 3.43847 -21.236 0.518865 -0.136327 22.7581 -2.48951 -0.168867 -11.2184 3.04425 -4.22417e-016 0 -0 
49.564 88.2825 -67.4761 -2.12436 8.74303 6.88412 2.48476 -8.24068 2.73916 -8.36539 -9.67609 -6.56645 16.1082 11.6681 -12.6629 -102.362 48.3197 26.0832 13.3955 -4.18492 -25.9285 -0.089088 -17.3683 0.957744 85.183 42.7553 -16.176 -17.8881 -7.20357 29.5868 3.37395 -21.734 2.57151 6.59602 -22.6214 10.3105 5.05883 58.6177 -1.72383 -1.25036 -13.4476 8.14003 1.59028e-015 -6.36111e-015 -0 4.32452 -19.6931 1.2924 -0.296738 23.8977 -2.54668 -0.273183 -14.4821 3.12508 5.2181e-016 1.98785e-016 -0 
49.4559 88.0483 -64.4261 -2.42904 8.55063 5.77234 3.07619 -7.84729 4.2233 -8.46914 -10.4279 -6.02462 16.1023 12.5269 -12.9399 -101.372 45.9567 24.5002 13.3408 -4.17722 -25.8761 -0.193686 -17.5905 0.885851 82.0351 41.4954 -12.053 -18.1427 -7.42798 29.8353 3.32067 -21.4226 2.4508 6.91881 -27.6895 10.4797 4.17137 58.5882 -0.731141 -0.160309 -17.2572 9.06405 -1.59028e-015 -3.18055e-015 -3.18055e-015 5.50704 -17.6525 2.3963 -0.462844 24.301 -2.5107 0.283027 -16.4214 3.09055 -1.2424e-016 9.93923e-017 -0 
49.3934 87.7663 -61.3685 -2.30132 8.14317 4.79959 3.11399 -7.7295 5.28601 -8.28431 -8.57087 -5.46115 16.1714 10.9766 -12.4358 -102.126 44.6305 25.3807 13.3139 -4.11816 -25.751 -0.389654 -16.7771 0.838787 81.4397 40.398 -11.5216 -19.265 -8.35694 31.7514 3.32911 -22.247 2.49637 6.93368 -31.6657 11.0868 3.24714 56.3903 0.0752056 -0.404878 -16.1368 11.411 -1.59028e-015 -1.59028e-015 -0 6.08256 -15.2559 3.20432 -0.668899 24.9653 -2.47289 0.676648 -18.6314 2.78505 -4.28629e-016 -9.93923e-017 7.95139e-016 
49.36 87.8272 -58.207 -2.47969 7.94099 3.64499 3.45507 -7.23881 6.37573 -7.97173 -10.2234 -5.07763 15.4557 12.7179 -12.884 -101.769 44.2963 24.6138 12.8027 -3.87533 -24.9525 -0.36273 -15.819 0.865796 79.6931 39.4696 -8.52056 -19.5134 -8.7316 32.1712 3.5252 -23.3452 2.6011 7.34974 -35.4544 10.7984 2.01581 52.7745 1.0447 0.469971 -18.1812 10.7407 8.82781e-032 -7.95139e-016 6.36111e-015 6.57039 -12.2223 3.31187 -0.714817 23.8896 -2.43622 0.984893 -20.2193 3.67434 -4.47266e-016 0 7.95139e-016 
49.3358 87.7144 -55.1168 -2.61065 7.64768 2.68205 3.73641 -7.48373 6.80226 -8.49886 -7.80534 -4.58323 16.5313 10.9237 -11.8928 -102.822 43.058 26.0533 12.5506 -3.79506 -24.6959 -0.167114 -14.7052 0.947513 79.9608 39.9675 -8.6913 -20.3702 -9.47929 33.7374 3.57593 -25.1129 2.7796 8.1046 -38.4644 11.219 0.952314 47.955 1.62935 0.624705 -17.539 9.20782 -2.23633e-016 3.97569e-016 -0 7.12944 -8.85452 4.50367 -0.739459 22.5567 -2.38805 1.21329 -21.2507 3.51111 4.41053e-016 -1.49089e-016 -0 
49.3699 87.4572 -51.9327 -3.436 7.64137 1.98239 4.31721 -7.27729 6.98509 -7.6969 -9.55094 -4.36343 15.3877 12.6586 -12.082 -103.142 43.428 26.3879 11.8626 -3.4501 -23.6437 -0.252123 -12.751 0.980452 80.1909 42.5565 -7.92928 -21.6065 -11.0434 36.5489 4.2735 -31.8164 3.76688 9.241 -41.3097 10.2688 -0.0613488 42.5737 2.03759 0.563089 -15.7831 8.62845 7.95139e-016 -7.95139e-016 -0 8.12561 -5.48464 4.86271 -0.725105 20.43 -2.35049 1.5125 -21.5411 3.65285 3.72721e-016 -1.98785e-016 -0 
49.4956 87.372 -48.5929 -3.50479 7.66527 0.781218 4.64216 -7.91425 7.64496 -7.90552 -8.57796 -3.82561 15.4667 12.5503 -11.7134 -104.603 43.0333 28.1187 11.4015 -3.22382 -22.9513 -0.239148 -12.0239 0.970612 80.6466 42.0447 -8.7057 -21.6785 -10.7165 36.2184 3.58725 -26.6248 3.06224 9.64148 -43.5485 9.04595 -0.567485 37.7346 2.10654 0.685193 -15.3671 8.80213 -7.95139e-016 1.59028e-015 -9.54166e-015 7.74251 -1.87361 4.72017 -0.529532 18.0088 -2.26754 1.86295 -21.9349 5.33628 -9.44227e-016 0 -0 
49.643 86.9982 -45.2095 -4.07461 7.93477 -0.476836 5.34218 -8.55426 8.04954 -7.80335 -8.52265 -3.28635 15.4528 13.0142 -11.1662 -105.258 41.7944 29.2066 10.9316 -3.04204 -22.3361 -0.234672 -9.76603 1.00999 81.6574 44.1921 -9.69037 -22.2252 -11.1104 37.1928 3.53176 -27.6216 3.07626 10.227 -45.9369 6.82836 -0.178153 34.1243 1.87778 0.00659365 -15.0106 11.5429 -1.59028e-015 3.18055e-015 -3.18055e-015 7.92731 0.28648 4.88409 -0.315244 18.2672 -2.30575 2.43113 -24.0765 6.73956 -4.96962e-017 -7.95139e-016 -0 
49.8887 86.7944 -41.778 -4.96045 8.4356 -2.12256 6.7249 -9.42188 9.10444 -8.05864 -7.84084 -2.78563 15.5029 12.7277 -11.0457 -106.585 41.402 30.615 10.5711 -2.87724 -21.8231 -0.182379 -10.0855 0.985671 83.0583 45.6425 -11.3379 -22.6066 -11.4396 38.0246 3.45723 -27.7591 3.06433 11.1846 -47.8706 3.32536 0.14842 31.5905 1.87065 -0.375834 -15.7101 15.1093 0 0 -3.18055e-015 8.06368 2.54982 5.28736 -0.0459226 17.8252 -2.28342 3.00893 -24.8609 7.8256 3.47873e-016 -7.95139e-016 -0 
50.1133 86.3339 -38.2912 -5.50185 9.15556 -3.70031 7.46118 -10.2529 9.95364 -7.88596 -7.9435 -2.37522 15.1777 13.215 -10.9091 -106.538 39.7869 31.026 10.2369 -2.80413 -21.4534 -0.38948 -7.54391 1.3505 84.6185 47.1231 -12.4513 -22.7929 -11.4725 38.2634 3.37627 -27.6016 3.00637 12.0494 -49.2372 0.0104075 0.263893 30.0526 2.06326 0.0447015 -16.9673 17.5889 1.59028e-015 0 1.59028e-015 7.98754 4.37105 6.22949 0.183112 17.2999 -2.27299 3.51826 -25.7732 8.43173 8.44835e-016 7.95139e-016 7.95139e-016 
50.462 85.9281 -34.7153 -5.62434 9.50345 -4.92711 7.75057 -10.7543 10.6788 -7.92369 -7.23305 -2.02882 15.3658 12.5456 -10.7272 -106.648 39.3877 31.4709 9.61038 -2.61861 -20.6331 -0.546151 -6.00153 1.78215 86.8537 48.0986 -14.9063 -23.1519 -11.7209 38.982 3.22537 -27.3967 2.88862 13.3669 -49.4076 1.95124 0.305152 29.286 2.04535 -0.35714 -15.5573 18.5938 -7.95139e-016 0 -4.77083e-015 7.4654 6.31061 6.71793 0.147214 17.5736 -2.30038 4.01498 -26.5267 9.40605 7.95139e-016 0 -1.59028e-015 
